<svg xmlns="http://www.w3.org/2000/svg" viewBox="0 0 40 40"><style>.st0{display:none}.st1,.st2,.st3{display:inline}.st2,.st3{fill-rule:evenodd;clip-rule:evenodd}.st3{display:none}.st4,.st5{fill:#82be28}.st5,.st6{display:inline}.st6,.st7{fill-rule:evenodd;clip-rule:evenodd;fill:#82be28}.st8,.st9{fill:#fff}.st10,.st9{display:inline}.st10,.st11{fill-rule:evenodd;clip-rule:evenodd;fill:#fff}.st12{display:inline;fill:#009fbb}.st13{fill:#e90000}</style><g id="Black"><path id="arrow_x5F_down" class="st0" d="M17.7 26.5L10 18.4c-1.3-1.4-1.3-3.5 0-4.9 1.2-1.3 3.2-1.3 4.4-.2l.2.2 5.4 5.7 5.4-5.7c1.2-1.3 3.2-1.3 4.4-.2l.2.2c1.2 1.4 1.3 3.5 0 4.8l-7.7 8.1c-1.2 1.3-3.2 1.4-4.4.2l-.2-.1z"/><path id="arrow_left" class="st0" d="M12.4 17.7l8.2-7.7c1.4-1.3 3.5-1.3 4.9 0 1.3 1.2 1.3 3.2.2 4.4l-.2.2-5.8 5.4 5.7 5.4c1.3 1.2 1.3 3.2.2 4.4l-.2.2c-1.4 1.2-3.5 1.3-4.8 0l-8.1-7.7c-1.3-1.2-1.4-3.1-.2-4.4l.1-.2z"/><path id="arrow_x5F_right" class="st0" d="M27.6 22.3L19.4 30c-1.4 1.3-3.5 1.3-4.9 0-1.3-1.2-1.3-3.2-.2-4.4l.2-.2 5.7-5.4-5.7-5.4c-1.3-1.2-1.3-3.2-.2-4.4l.2-.2c1.4-1.2 3.5-1.3 4.8 0l8.1 7.7c1.3 1.2 1.4 3.1.2 4.4v.2z"/><path id="arrow_x5F_up" class="st0" d="M22.3 13.5l7.7 8.2c1.3 1.4 1.3 3.5 0 4.9-1.2 1.3-3.2 1.4-4.4.2l-.2-.2-5.4-5.8-5.4 5.7c-1.2 1.3-3.2 1.4-4.4.2l-.2-.2c-1.2-1.4-1.2-3.5 0-4.8l7.7-8.1c1.2-1.3 3.1-1.4 4.4-.2l.2.1z"/><g id="external" class="st0"><path class="st1" d="M25.6 22V11.5c0-.9-.7-1.6-1.6-1.6H8.7c-.9 0-1.6.7-1.7 1.5V22c0 .9.7 1.6 1.6 1.6h15.5c.8-.1 1.5-.7 1.5-1.6zm-3.2-1.6H10.2v-7.3h12.2v7.3z"/><path class="st1" d="M31.3 16.4h-3.5v3.1h2v7.3H17.6v-1.1h-3.2v2.7c0 .9.7 1.6 1.6 1.6h15.4c.9.1 1.6-.6 1.7-1.5V18c0-.9-.7-1.6-1.6-1.6h-.2z"/></g><g id="home" class="st0"><path class="st1" d="M32.5 25v6.7c0 .9-.7 1.7-1.7 1.7h-5c-.9 0-1.7-.7-1.7-1.7V25h-8.4v6.7c0 .9-.7 1.7-1.7 1.7H9c-.9 0-1.7-.7-1.7-1.7V16.6l9-8.4C18.1 6.3 21 6 23 7.7l.6.6 9 8.4-.1 8.3z"/></g><path id="mail" class="st0" d="M35.4 11.5c-1-2.4-3.3-3.9-5.9-3.9h-19C7 7.6 4.1 10.5 4.1 14v12.1c0 3.5 2.9 6.4 6.4 6.4h19c3.5 0 6.4-2.9 6.4-6.4V13.9c0-.8-.2-1.7-.5-2.4zm-7 0l-8.2 7.2h-.1-.1l-8.3-7.2h16.7zM32 26.1c0 1.3-1.1 2.5-2.4 2.5h-19c-1.3 0-2.5-1.1-2.5-2.4V14v-.4l9.2 8.1c1.6 1.3 3.9 1.3 5.5 0l9.2-8V26.1z"/><g id="pdf" class="st0"><path id="シェイプ_41" class="st1" d="M32.5 12.8c0-.3-.1-.6-.3-.8l-6.3-6.7c-.2-.2-.6-.4-.9-.4H12.5c-2.6-.1-4.9 1.9-5 4.5V30c-.3 2.5 1.4 4.7 3.9 5h16.2c2.5.3 4.7-1.4 5-3.9V30l-.1-17.2zm-4 14.7c0 2.9-.7 3.8-3.8 3.8h-9.4c-3.5 0-3.8-1.2-3.8-3.8V12.4c0-3.3.2-3.8 3.8-3.8h5.6v3.8c-.2 1.8 1 3.5 2.9 3.8h4.7v11.3z"/></g><path id="print" class="st0" d="M31.3 13.8V7.6c0-1-.8-1.9-1.9-1.9H10.7c-1 0-1.9.8-1.9 1.9v6.2c-4.6 1-7.4 5.5-6.4 10.1.8 3.8 4.2 6.6 8.1 6.6h.3v1.9c0 1 .8 1.9 1.9 1.9h14.6c1 0 1.9-.8 1.9-1.9v-1.8h.3c4.7-.1 8.4-3.9 8.3-8.6-.1-3.9-2.8-7.3-6.6-8.1l.1-.1zM12.6 9.5h15v4.1h-15V9.5zm12.9 21H14.7v-5h10.8v5zm4-3.7h-.3v-1.2h.9c1 .1 1.9-.7 2-1.7s-.7-1.9-1.7-2H10c-1-.1-1.9.7-2 1.7-.1 1 .7 1.9 1.7 2H11v1.2h-.3c-2.6 0-4.7-2.1-4.7-4.7s2.1-4.7 4.7-4.7h18.9c2.6 0 4.7 2.1 4.7 4.7s-2.1 4.7-4.8 4.7z"/><g id="link" class="st0"><path class="st1" d="M8.6 31.4c1.8 1.8 4.3 2.8 6.8 2.8 2.6 0 5-1 6.8-2.8l1.7-1.7c.9-.9.9-2.4 0-3.3-.9-.9-2.4-.9-3.3 0L18.9 28c-2 2-5.2 2-7.2 0s-2-5.2 0-7.2l1.7-1.7c.9-.9.9-2.4 0-3.3-.9-.9-2.4-.9-3.3 0l-1.7 1.7c-3.8 3.9-3.7 10.1.2 13.9zM26.5 20.6c-.9.9-1 2.3-.1 3.2l.1.1c.4.4 1 .7 1.7.7.6 0 1.2-.2 1.7-.7l1.7-1.7c3.8-3.7 3.8-9.8.1-13.5l-.1-.1c-3.8-3.8-9.9-3.8-13.7 0l-1.7 1.7c-.9.9-.9 2.4 0 3.3.9.9 2.4.9 3.3 0l1.7-1.7c1.9-2 5.1-2 7.1-.1l.1.1c1 1 1.5 2.2 1.5 3.6 0 1.3-.5 2.6-1.5 3.6l-1.9 1.5z"/><path class="st1" d="M21 15.7L15.8 21c-.9.9-1 2.3-.1 3.2l.1.1c.4.4 1 .7 1.7.7.6 0 1.2-.2 1.7-.7l5.2-5.2c.9-.9 1-2.3.1-3.2l-.1-.1c-1-1-2.4-1-3.4-.1z"/></g><g id="feed" class="st0"><path class="st1" d="M10 15.3c-1.4 0-2.5 1.1-2.5 2.5s1.1 2.5 2.5 2.5c5.2-.2 9.7 3.9 9.9 9.1v.6c0 1.4 1.1 2.4 2.5 2.4s2.5-1.2 2.4-2.6c0-8-6.4-14.5-14.4-14.6-.1.1-.3.1-.4.1z"/><path class="st1" d="M10.6 7.6c-1.4 0-2.5 1.1-2.5 2.5s1.1 2.5 2.5 2.5c9.2.1 16.7 7.4 16.9 16.6 0 1.4 1.1 2.5 2.5 2.5s2.5-1.2 2.5-2.6c-.3-11.9-10-21.4-21.9-21.5z"/><circle class="st1" cx="12" cy="28.1" r="4.2"/></g><path id="search" class="st0" d="M31.9 28.5l-3.1-3.1c3.8-5.4 2.5-12.9-3-16.7S13 6.3 9.2 11.7s-2.5 12.9 3 16.7c3.7 2.6 8.6 2.9 12.6.7l3.3 3.3c1 1.2 2.7 1.3 3.9.3 1.2-1 1.3-2.7.3-3.9-.1 0-.2-.1-.4-.3zm-20.4-9.9c0-4.1 3.3-7.4 7.4-7.4 4.1 0 7.4 3.3 7.4 7.4S23.1 26 19 26c-4.2 0-7.5-3.3-7.5-7.4z"/><g id="download_3_" class="st0"><path class="st1" d="M20.1 27.2c-.7 0-1.3-.3-1.8-.7l-7-7.2c-1-1.1-1-2.7 0-3.8.5-.5 1.1-.7 1.8-.7s1.3.3 1.8.7l2.4 2.4V7.6c0-1.6 1.3-2.9 2.9-2.9s2.9 1.3 2.9 2.9v10.1l2.2-2.3c.5-.5 1.1-.7 1.8-.7s1.3.3 1.8.7c1 1 1.1 2.7 0 3.8l-7.1 7.2c-.4.6-1.1.8-1.7.8zM12.5 35.3c-1.2 0-2.1-.9-2.1-2.1s.9-2.1 2.1-2.1h15.1c1.2 0 2.1.9 2.1 2.1s-.9 2.1-2.1 2.1H12.5z"/></g><g id="movie" class="st0"><path class="st1" d="M30.3 8.4H9.7c-2.1 0-3.9 1.7-3.9 3.9V27.7c0 2.1 1.7 3.9 3.9 3.9h20.6c2.1 0 3.9-1.7 3.9-3.9V12.3c-.1-2.1-1.8-3.9-3.9-3.9zm1.3 18H8.4V13.6h23.1v12.8z"/><path class="st1" d="M18.8 23.6l4.4-2.7c.8-.5.8-1.3 0-1.7l-4.4-2.7c-.8-.5-1.4-.3-1.4.4v6.3c0 .7.7.9 1.4.4z"/></g><g id="pdf_3_" class="st0"><path class="st2" d="M17 20.1h-1.3v4.5H17c.7 0 1.2-.3 1.4-1 .1-.4.2-.8.2-1.3 0-.7-.1-1.2-.3-1.6-.2-.5-.7-.6-1.3-.6zM11.8 21.8c.2-.2.3-.4.3-.8s-.1-.6-.3-.8c-.2-.2-.4-.2-.8-.2H9.7v2H11c.3.1.6 0 .8-.2z"/><path class="st2" d="M30 4.8H13.6c-2.3 0-4.2 1.9-4.2 4.2v6.4h-1c-1.6 0-3 1.3-3 3v7.7c0 1.6 1.3 3 3 3h.9V31c0 2.3 1.9 4.2 4.2 4.2h16.7c2.3 0 4.2-1.9 4.2-4.2V9.4L30 4.8zm-21.8 21v-6.9h3c.7 0 1.2.2 1.6.5.4.4.6.9.6 1.7 0 .8-.2 1.4-.6 1.7-.4.3-1 .5-1.7.5H9.7v2.5H8.2zm23 3.8c0 1.2-1 2.2-2.2 2.2H14.9c-1.2 0-2.2-1-2.2-2.2V29h12.8c1.6 0 3-1.3 3-3v-7.7c0-1.6-1.3-3-3-3H12.7v-5.1c0-1.2 1-2.2 2.2-2.2h9.9v2.2c0 1.6 1.3 3 3 3h3.5v16.4zm-17-3.8v-6.9h3c.4 0 .8.1 1.1.2.5.2.9.5 1.2.9.2.3.4.7.5 1.1.1.4.1.8.1 1.1 0 .9-.2 1.7-.6 2.3-.5.9-1.3 1.3-2.3 1.3h-3zm11.5-4.1v1.2h-3.1v2.9h-1.4v-6.9h4.9v1.2h-3.5v1.6h3.1z"/></g><g id="e_x7E_book_1_" class="st0"><path class="st2" d="M14.8 24.5c.3 0 .6-.1.7-.4s.3-.6.3-1.1c0-.5-.1-.8-.3-1.1-.2-.3-.4-.4-.7-.4s-.6.1-.8.4c-.2.3-.3.6-.3 1.1 0 .5.1.8.3 1.1.3.2.5.4.8.4zM10.7 22.6c-.1-.1-.3-.1-.6-.1H8.7v1.7h1.4c.2 0 .4 0 .6-.1.3-.1.4-.4.4-.8-.1-.3-.2-.5-.4-.7z"/><path class="st2" d="M30 4.8H13.6c-2.3 0-4.2 1.9-4.2 4.2v6.4h-1c-1.6 0-3 1.3-3 3v7.7c0 1.6 1.3 3 3 3h.9V31c0 2.3 1.9 4.2 4.2 4.2h16.7c2.3 0 4.2-1.9 4.2-4.2V9.4L30 4.8zM12 24.4c-.1.2-.2.4-.4.5-.2.2-.4.3-.6.3s-.5.1-.8.1H7.5V19h2.8c.7 0 1.2.2 1.5.7.2.3.3.6.3 1s-.1.7-.3.9c-.1.1-.2.3-.4.4.3.1.5.3.7.6.1.3.2.6.2.9-.1.3-.1.6-.3.9zm19.2 5.2c0 1.2-1 2.2-2.2 2.2H14.9c-1.2 0-2.2-1-2.2-2.2V29h12.8c1.6 0 3-1.3 3-3v-7.7c0-1.6-1.3-3-3-3H12.7v-5.1c0-1.2 1-2.2 2.2-2.2h9.9v2.2c0 1.6 1.3 3 3 3h3.5v16.4zM12.7 23c0-.7.2-1.3.5-1.8s.9-.7 1.6-.7c.7 0 1.3.2 1.6.7s.6 1.1.6 1.8-.2 1.3-.5 1.8-.9.7-1.6.7c-.7 0-1.3-.2-1.6-.7s-.6-1.1-.6-1.8zm4.8 0c0-.7.2-1.3.5-1.8s.9-.7 1.6-.7c.7 0 1.3.2 1.6.7.4.5.5 1.1.5 1.8s-.2 1.3-.5 1.8c-.4.5-.9.7-1.6.7-.7 0-1.3-.2-1.6-.7s-.5-1.1-.5-1.8zm7.4-2.4h1.4l-1.5 1.8 1.6 2.9H25l-1-2-.5.5v1.5h-1.1V19h1.1v3.4l1.4-1.8z"/><path class="st2" d="M10.7 21.3c.2-.1.2-.3.2-.6s-.1-.5-.3-.6c-.2-.1-.4-.1-.7-.1H8.7v1.4h1.4c.2.1.4 0 .6-.1zM19.6 24.5c.3 0 .6-.1.7-.4s.3-.6.3-1.1c0-.5-.1-.8-.3-1.1-.2-.3-.4-.4-.7-.4s-.6.1-.8.4c-.2.3-.3.6-.3 1.1 0 .5.1.8.3 1.1.3.2.5.4.8.4z"/></g><g id="html_1_" class="st0"><path class="st1" d="M28.4 4.9H11.6c-3.4 0-6.1 2.7-6.1 6.1v18c0 3.4 2.7 6.1 6.1 6.1h16.8c3.4 0 6.1-2.7 6.1-6.1V11c0-3.4-2.7-6.1-6.1-6.1zM17.5 10c.7 0 1.3.6 1.3 1.3s-.6 1.3-1.3 1.3c-.7 0-1.3-.6-1.3-1.3s.5-1.3 1.3-1.3zm-3.9 0c.7 0 1.3.6 1.3 1.3s-.6 1.3-1.3 1.3-1.3-.6-1.3-1.3.6-1.3 1.3-1.3zm-3.8 0c.7 0 1.3.6 1.3 1.3s-.6 1.3-1.3 1.3-1.3-.6-1.3-1.3.6-1.3 1.3-1.3zM32 29c0 2-1.6 3.6-3.6 3.6H11.6C9.6 32.6 8 31 8 29V16.2h24V29z"/><path class="st1" d="M11.6 24.9h1.5v2.3h1.5v-5.9h-1.5v2h-1.5v-2h-1.5v5.9h1.5zM16.6 27.2h1.6v-4.3h1.4v-1.6h-4.3v1.6h1.3zM21.5 25.2v-.9l-.1-.9.9 3.8h1.1l.8-3.8v1.1l-.1.9v1.8h1.4v-5.9h-1.8l-.9 3.7-.8-3.7h-1.8v5.9h1.3zM29.9 25.9h-2.1v-4.6h-1.5v5.9h3.6z"/></g><path id="map" class="st0" d="M20 4.8c-6 0-10.9 4.9-10.9 10.9 0 9.7 10.3 19.4 10.9 19.4.7 0 10.9-9.7 10.9-19.4 0-6-4.9-10.9-10.9-10.9zm0 14.6c-2 0-3.6-1.6-3.6-3.6s1.6-3.6 3.6-3.6 3.6 1.6 3.6 3.6-1.6 3.6-3.6 3.6z"/><path id="facebook" class="st0" d="M31.9 12.1c0-2.1-1.9-4-4-4H12.1c-2.1 0-4 1.9-4 4v15.8c0 2.1 1.9 4 4 4H20v-9h-2.9v-4H20v-1.5c0-2.7 2-5.1 4.4-5.1h3.2v4h-3.2c-.3 0-.8.4-.8 1.1V19h4v4h-4v9h4.2c2.1 0 4-1.9 4-4V12.1h.1z"/><path id="youtube" class="st3" d="M35.6 26.3s-.3 2.2-1.3 3.1c-1.2 1.3-2.6 1.3-3.2 1.3-4.4.4-11.1.4-11.1.4s-8.3-.1-10.8-.3c-.7-.1-2.3-.1-3.5-1.4-1-1-1.3-3.1-1.3-3.1s-.3-2.6-.3-5.1v-2.4c0-2.6.3-5.1.3-5.1s.3-2.2 1.3-3.1c1.2-1.3 2.6-1.3 3.2-1.3 4.4-.4 11.1-.4 11.1-.4s6.7 0 11.1.3c.6.1 2 .1 3.2 1.3 1 1 1.3 3.1 1.3 3.1s.3 2.6.3 5.1v2.4c0 2.7-.3 5.2-.3 5.2zM16.8 15.2v9.5l9.5-4.8-9.5-4.7z"/><path id="twitter_1_" class="st0" d="M32.7 11.4c-.9.5-1.9.8-3 .9 1.1-.7 1.9-1.8 2.3-3.1-1 .7-2.1 1.1-3.3 1.4-1-1.1-2.3-1.8-3.8-1.8-2.9 0-5.2 2.5-5.2 5.7 0 .4 0 .9.1 1.3-4.3-.2-8.2-2.5-10.7-5.9-.4.8-.7 1.8-.7 2.8 0 2 .9 3.7 2.3 4.7-.9 0-1.7-.3-2.4-.7v.1c0 2.7 1.8 5 4.2 5.6-.4.1-.9.2-1.4.2-.3 0-.7 0-1-.1.7 2.3 2.6 3.9 4.9 3.9-1.8 1.5-4 2.4-6.5 2.4-.4 0-.8 0-1.2-.1 2.3 1.6 5 2.5 8 2.5 9.6 0 14.8-8.6 14.8-16.1v-.7c1-.8 1.9-1.8 2.6-3z"/><g id="fresh" class="st0"><path class="st1" d="M35.4 15.4c-.5 1.8-.9 3.5-1.4 5.3h1.6c.8-1.7 1.6-3.4 2.3-5.1-.8-.3-1.7-.1-2.5-.2zM2.1 15.6c.2 3.8.5 7.5 1 11.3.9-.3 1.7-.6 2.5-.9-.1-1.3-.1-2.5-.2-3.7 1.2-.4 2.3-.8 3.4-1.2.1-.9.1-2-.1-2.5-1.1.4-2.3.8-3.5 1.2-.1-.8-.1-1.4-.2-2.1 1.3-.5 2.6-.9 3.9-1.4 0-.5.1-1 .1-1.5s0-1-.1-1.6c-2.4.6-4.6 1.4-6.8 2.4zM31.4 17.1c-.2.9-.5 1.8-.7 2.6-.5 0-.9.1-1.4.1.2-.9.3-1.8.5-2.7-.7.1-1.4.1-2.1.2-.6 2.4-1.1 4.7-1.5 7.2.7-.1 1.3-.1 2-.2.2-.8.4-1.6.6-2.3.5 0 .9-.1 1.3-.1-.2.8-.3 1.5-.5 2.4.7-.1 1.3-.1 2-.2.6-2.4 1.2-4.7 1.7-7.1-.6-.1-1.3-.1-1.9.1zM25.7 19c-.3-.1-.6-.3-.9-.4-.2-.1-.3-.3-.6-.4.7-.9 1.7-.3 2.5-.6.2-.6.3-1.2.5-1.9-.2-.1-.3-.1-.4-.1-.9-.1-1.8-.1-2.6.2-.8.3-1.6.7-2 1.6-.5 1-.2 1.8.7 2.3.3.2.6.3.9.5.2.1.3.3.5.4-.8.9-1.8.5-2.7.7-.1.6-.3 1.2-.4 1.8 1.3.1 2.6.2 3.7-.3.7-.3 1.2-.7 1.5-1.4.5-1.1.2-2-.7-2.4zM21 18.4c.1-.6.2-1.3.3-2-1.6.2-3.1.4-4.6.7-.4 2.4-.5 4.7-.7 7 1.1.1 3.8-.3 4.4-.6 0-.5.1-1 .2-1.6-.9.1-1.6.2-2.4.3v-.9c.8-.1 1.5-.3 2.4-.4 0-.4.1-.9.1-1.4-.8.1-1.5.2-2.3.3.1-.4.1-.6.1-1 .8-.1 1.6-.2 2.5-.4zM34.6 21.3c-.3 0-.6.1-.8.2-.4.2-.6.7-.5 1.1.1.4.5.7 1.1.7h.3c.5-.1.9-.6.9-1.1-.1-.5-.5-.9-1-.9zM13.4 15.7c-1.3 0-2.4.5-3.5 1.1-.2 2.6-.3 5.1-.3 7.8.8-.2 1.4-.4 2-.6.1-.7.2-1.4.2-2.1.5.6.9 1.1 1.4 1.7l2.1-.6c-.5-.7-.9-1.4-1.4-2 .8-.5 1.4-1.1 1.7-2 .6-1.6-.3-3.3-2.2-3.3zM11.9 20v-2c.4-.3.8-.3 1.3-.2.6.9.1 1.8-1.3 2.2z"/></g><path id="back" d="M28.6 16.5h-9.2l2-1.9.2-.2c1.2-1.3 1.1-3.3-.2-4.4-1.4-1.3-3.5-1.3-4.9 0l-8.2 7.7-.2.2c-1.2 1.3-1.1 3.3.2 4.4l8.1 7.7c1.4 1.2 3.5 1.2 4.8 0l.2-.2c1.2-1.3 1.1-3.3-.2-4.4l-2-1.9h9.2c2.2 0 4-1.6 4-3.5s-1.6-3.5-3.8-3.5z"/></g><g id="Green" class="st0"><path id="arrow_x5F_down_2_" class="st4" d="M17.7 26.5L10 18.4c-1.3-1.4-1.3-3.5 0-4.9 1.2-1.3 3.2-1.3 4.4-.2l.2.2 5.4 5.7 5.4-5.7c1.2-1.3 3.2-1.3 4.4-.2l.2.2c1.2 1.4 1.3 3.5 0 4.8l-7.7 8.1c-1.2 1.3-3.2 1.4-4.4.2l-.2-.1z"/><path id="arrow_x5F_left" class="st4" d="M12.4 17.7l8.2-7.7c1.4-1.3 3.5-1.3 4.9 0 1.3 1.2 1.3 3.2.2 4.4l-.2.2-5.8 5.4 5.7 5.4c1.3 1.2 1.3 3.2.2 4.4l-.2.2c-1.4 1.2-3.5 1.3-4.8 0l-8.1-7.7c-1.3-1.2-1.4-3.1-.2-4.4l.1-.2z"/><path id="arrow_x5F_right_2_" class="st4" d="M27.6 22.3L19.4 30c-1.4 1.3-3.5 1.3-4.9 0-1.3-1.2-1.3-3.2-.2-4.4l.2-.2 5.7-5.4-5.7-5.4c-1.3-1.2-1.3-3.2-.2-4.4l.2-.2c1.4-1.2 3.5-1.3 4.8 0l8.1 7.7c1.3 1.2 1.4 3.1.2 4.4v.2z"/><path id="arrow_x5F_up_2_" class="st4" d="M22.3 13.5l7.7 8.2c1.3 1.4 1.3 3.5 0 4.9-1.2 1.3-3.2 1.4-4.4.2l-.2-.2-5.4-5.8-5.4 5.7c-1.2 1.3-3.2 1.4-4.4.2l-.2-.2c-1.2-1.4-1.2-3.5 0-4.8l7.7-8.1c1.2-1.3 3.1-1.4 4.4-.2l.2.1z"/><g id="download_2_"><path class="st5" d="M20.1 27.2c-.7 0-1.3-.3-1.8-.7l-7-7.2c-1-1.1-1-2.7 0-3.8.5-.5 1.1-.7 1.8-.7s1.3.3 1.8.7l2.4 2.4V7.6c0-1.6 1.3-2.9 2.9-2.9s2.9 1.3 2.9 2.9v10.1l2.2-2.3c.5-.5 1.1-.7 1.8-.7s1.3.3 1.8.7c1 1 1.1 2.7 0 3.8l-7.1 7.2c-.4.6-1.1.8-1.7.8zM12.5 35.3c-1.2 0-2.1-.9-2.1-2.1s.9-2.1 2.1-2.1h15.1c1.2 0 2.1.9 2.1 2.1s-.9 2.1-2.1 2.1H12.5z"/></g><g id="external_2_"><path class="st5" d="M25.6 22V11.5c0-.9-.7-1.6-1.6-1.6H8.7c-.9 0-1.6.7-1.7 1.5V22c0 .9.7 1.6 1.6 1.6h15.5c.8-.1 1.5-.7 1.5-1.6zm-3.2-1.6H10.2v-7.3h12.2v7.3z"/><path class="st5" d="M31.3 16.4h-3.5v3.1h2v7.3H17.6v-1.1h-3.2v2.7c0 .9.7 1.6 1.6 1.6h15.4c.9.1 1.6-.6 1.7-1.5V18c0-.9-.7-1.6-1.6-1.6h-.2z"/></g><path class="st5" d="M32.5 25v6.7c0 .9-.7 1.7-1.7 1.7h-5c-.9 0-1.7-.7-1.7-1.7V25h-8.4v6.7c0 .9-.7 1.7-1.7 1.7H9c-.9 0-1.7-.7-1.7-1.7V16.6l9-8.4C18.1 6.3 21 6 23 7.7l.6.6 9 8.4-.1 8.3z" id="home_2_"/><path id="mail_2_" class="st4" d="M35.4 11.5c-1-2.4-3.3-3.9-5.9-3.9h-19C7 7.6 4.1 10.5 4.1 14v12.1c0 3.5 2.9 6.4 6.4 6.4h19c3.5 0 6.4-2.9 6.4-6.4V13.9c0-.8-.2-1.7-.5-2.4zm-7 0l-8.2 7.2h-.1-.1l-8.3-7.2h16.7zM32 26.1c0 1.3-1.1 2.5-2.4 2.5h-19c-1.3 0-2.5-1.1-2.5-2.4V14v-.4l9.2 8.1c1.6 1.3 3.9 1.3 5.5 0l9.2-8V26.1z"/><g id="pdf_2_"><path id="シェイプ_41_2_" class="st5" d="M32.5 12.8c0-.3-.1-.6-.3-.8l-6.3-6.7c-.2-.2-.6-.4-.9-.4H12.5c-2.6-.1-4.9 1.9-5 4.5V30c-.3 2.5 1.4 4.7 3.9 5h16.2c2.5.3 4.7-1.4 5-3.9V30l-.1-17.2zm-4 14.7c0 2.9-.7 3.8-3.8 3.8h-9.4c-3.5 0-3.8-1.2-3.8-3.8V12.4c0-3.3.2-3.8 3.8-3.8h5.6v3.8c-.2 1.8 1 3.5 2.9 3.8h4.7v11.3z"/></g><path id="print_2_" class="st4" d="M31.3 13.8V7.6c0-1-.8-1.9-1.9-1.9H10.7c-1 0-1.9.8-1.9 1.9v6.2c-4.6 1-7.4 5.5-6.4 10.1.8 3.8 4.2 6.6 8.1 6.6h.3v1.9c0 1 .8 1.9 1.9 1.9h14.6c1 0 1.9-.8 1.9-1.9v-1.8h.3c4.7-.1 8.4-3.9 8.3-8.6-.1-3.9-2.8-7.3-6.6-8.1l.1-.1zM12.6 9.5h15v4.1h-15V9.5zm12.9 21H14.7v-5h10.8v5zm4-3.7h-.3v-1.2h.9c1 .1 1.9-.7 2-1.7s-.7-1.9-1.7-2H10c-1-.1-1.9.7-2 1.7-.1 1 .7 1.9 1.7 2H11v1.2h-.3c-2.6 0-4.7-2.1-4.7-4.7s2.1-4.7 4.7-4.7h18.9c2.6 0 4.7 2.1 4.7 4.7s-2.1 4.7-4.8 4.7z"/><g id="link_2_"><path class="st5" d="M8.6 31.4c1.8 1.8 4.3 2.8 6.8 2.8 2.6 0 5-1 6.8-2.8l1.7-1.7c.9-.9.9-2.4 0-3.3-.9-.9-2.4-.9-3.3 0L18.9 28c-2 2-5.2 2-7.2 0s-2-5.2 0-7.2l1.7-1.7c.9-.9.9-2.4 0-3.3-.9-.9-2.4-.9-3.3 0l-1.7 1.7c-3.8 3.9-3.7 10.1.2 13.9zM26.5 20.6c-.9.9-1 2.3-.1 3.2l.1.1c.4.4 1 .7 1.7.7.6 0 1.2-.2 1.7-.7l1.7-1.7c3.8-3.7 3.8-9.8.1-13.5l-.1-.1c-3.8-3.8-9.9-3.8-13.7 0l-1.7 1.7c-.9.9-.9 2.4 0 3.3.9.9 2.4.9 3.3 0l1.7-1.7c1.9-2 5.1-2 7.1-.1l.1.1c1 1 1.5 2.2 1.5 3.6 0 1.3-.5 2.6-1.5 3.6l-1.9 1.5z"/><path class="st5" d="M21 15.7L15.8 21c-.9.9-1 2.3-.1 3.2l.1.1c.4.4 1 .7 1.7.7.6 0 1.2-.2 1.7-.7l5.2-5.2c.9-.9 1-2.3.1-3.2l-.1-.1c-1-1-2.4-1-3.4-.1z"/></g><g id="feed_2_"><path class="st5" d="M10 15.3c-1.4 0-2.5 1.1-2.5 2.5s1.1 2.5 2.5 2.5c5.2-.2 9.7 3.9 9.9 9.1v.6c0 1.4 1.1 2.4 2.5 2.4s2.5-1.2 2.4-2.6c0-8-6.4-14.5-14.4-14.6-.1.1-.3.1-.4.1z"/><path class="st5" d="M10.6 7.6c-1.4 0-2.5 1.1-2.5 2.5s1.1 2.5 2.5 2.5c9.2.1 16.7 7.4 16.9 16.6 0 1.4 1.1 2.5 2.5 2.5s2.5-1.2 2.5-2.6c-.3-11.9-10-21.4-21.9-21.5z"/><circle class="st5" cx="12" cy="28.1" r="4.2"/></g><path id="search_2_" class="st4" d="M31.9 28.5l-3.1-3.1c3.8-5.4 2.5-12.9-3-16.7S13 6.3 9.2 11.7s-2.5 12.9 3 16.7c3.7 2.6 8.6 2.9 12.6.7l3.3 3.3c1 1.2 2.7 1.3 3.9.3 1.2-1 1.3-2.7.3-3.9-.1 0-.2-.1-.4-.3zm-20.4-9.9c0-4.1 3.3-7.4 7.4-7.4 4.1 0 7.4 3.3 7.4 7.4S23.1 26 19 26c-4.2 0-7.5-3.3-7.5-7.4z"/><g id="movie_1_"><path class="st5" d="M30.3 8.4H9.7c-2.1 0-3.9 1.7-3.9 3.9V27.7c0 2.1 1.7 3.9 3.9 3.9h20.6c2.1 0 3.9-1.7 3.9-3.9V12.3c-.1-2.1-1.8-3.9-3.9-3.9zm1.3 18H8.4V13.6h23.1v12.8z"/><path class="st5" d="M18.8 23.6l4.4-2.7c.8-.5.8-1.3 0-1.7l-4.4-2.7c-.8-.5-1.4-.3-1.4.4v6.3c0 .7.7.9 1.4.4z"/></g><g id="pdf_4_"><path class="st6" d="M17 20.1h-1.3v4.5H17c.7 0 1.2-.3 1.4-1 .1-.4.2-.8.2-1.3 0-.7-.1-1.2-.3-1.6-.2-.5-.7-.6-1.3-.6zM11.8 21.8c.2-.2.3-.4.3-.8s-.1-.6-.3-.8c-.2-.2-.4-.2-.8-.2H9.7v2H11c.3.1.6 0 .8-.2z"/><path class="st6" d="M30 4.8H13.6c-2.3 0-4.2 1.9-4.2 4.2v6.4h-1c-1.6 0-3 1.3-3 3v7.7c0 1.6 1.3 3 3 3h.9V31c0 2.3 1.9 4.2 4.2 4.2h16.7c2.3 0 4.2-1.9 4.2-4.2V9.4L30 4.8zm-21.8 21v-6.9h3c.7 0 1.2.2 1.6.5.4.4.6.9.6 1.7 0 .8-.2 1.4-.6 1.7-.4.3-1 .5-1.7.5H9.7v2.5H8.2zm23 3.8c0 1.2-1 2.2-2.2 2.2H14.9c-1.2 0-2.2-1-2.2-2.2V29h12.8c1.6 0 3-1.3 3-3v-7.7c0-1.6-1.3-3-3-3H12.7v-5.1c0-1.2 1-2.2 2.2-2.2h9.9v2.2c0 1.6 1.3 3 3 3h3.5v16.4zm-17-3.8v-6.9h3c.4 0 .8.1 1.1.2.5.2.9.5 1.2.9.2.3.4.7.5 1.1.1.4.1.8.1 1.1 0 .9-.2 1.7-.6 2.3-.5.9-1.3 1.3-2.3 1.3h-3zm11.5-4.1v1.2h-3.1v2.9h-1.4v-6.9h4.9v1.2h-3.5v1.6h3.1z"/></g><g id="e_x7E_book"><path class="st6" d="M14.8 24.5c.3 0 .6-.1.7-.4s.3-.6.3-1.1c0-.5-.1-.8-.3-1.1-.2-.3-.4-.4-.7-.4s-.6.1-.8.4c-.2.3-.3.6-.3 1.1 0 .5.1.8.3 1.1.3.2.5.4.8.4zM10.7 22.6c-.1-.1-.3-.1-.6-.1H8.7v1.7h1.4c.2 0 .4 0 .6-.1.3-.1.4-.4.4-.8-.1-.3-.2-.5-.4-.7z"/><path class="st6" d="M30 4.8H13.6c-2.3 0-4.2 1.9-4.2 4.2v6.4h-1c-1.6 0-3 1.3-3 3v7.7c0 1.6 1.3 3 3 3h.9V31c0 2.3 1.9 4.2 4.2 4.2h16.7c2.3 0 4.2-1.9 4.2-4.2V9.4L30 4.8zM12 24.4c-.1.2-.2.4-.4.5-.2.2-.4.3-.6.3s-.5.1-.8.1H7.5V19h2.8c.7 0 1.2.2 1.5.7.2.3.3.6.3 1s-.1.7-.3.9c-.1.1-.2.3-.4.4.3.1.5.3.7.6.1.3.2.6.2.9-.1.3-.1.6-.3.9zm19.2 5.2c0 1.2-1 2.2-2.2 2.2H14.9c-1.2 0-2.2-1-2.2-2.2V29h12.8c1.6 0 3-1.3 3-3v-7.7c0-1.6-1.3-3-3-3H12.7v-5.1c0-1.2 1-2.2 2.2-2.2h9.9v2.2c0 1.6 1.3 3 3 3h3.5v16.4zM12.7 23c0-.7.2-1.3.5-1.8s.9-.7 1.6-.7c.7 0 1.3.2 1.6.7s.6 1.1.6 1.8-.2 1.3-.5 1.8-.9.7-1.6.7c-.7 0-1.3-.2-1.6-.7s-.6-1.1-.6-1.8zm4.8 0c0-.7.2-1.3.5-1.8s.9-.7 1.6-.7c.7 0 1.3.2 1.6.7.4.5.5 1.1.5 1.8s-.2 1.3-.5 1.8c-.4.5-.9.7-1.6.7-.7 0-1.3-.2-1.6-.7s-.5-1.1-.5-1.8zm7.4-2.4h1.4l-1.5 1.8 1.6 2.9H25l-1-2-.5.5v1.5h-1.1V19h1.1v3.4l1.4-1.8z"/><path class="st6" d="M10.7 21.3c.2-.1.2-.3.2-.6s-.1-.5-.3-.6c-.2-.1-.4-.1-.7-.1H8.7v1.4h1.4c.2.1.4 0 .6-.1zM19.6 24.5c.3 0 .6-.1.7-.4s.3-.6.3-1.1c0-.5-.1-.8-.3-1.1-.2-.3-.4-.4-.7-.4s-.6.1-.8.4c-.2.3-.3.6-.3 1.1 0 .5.1.8.3 1.1.3.2.5.4.8.4z"/></g><g id="html_2_"><path class="st5" d="M28.4 4.9H11.6c-3.4 0-6.1 2.7-6.1 6.1v18c0 3.4 2.7 6.1 6.1 6.1h16.8c3.4 0 6.1-2.7 6.1-6.1V11c0-3.4-2.7-6.1-6.1-6.1zM17.5 10c.7 0 1.3.6 1.3 1.3s-.6 1.3-1.3 1.3c-.7 0-1.3-.6-1.3-1.3s.5-1.3 1.3-1.3zm-3.9 0c.7 0 1.3.6 1.3 1.3s-.6 1.3-1.3 1.3-1.3-.6-1.3-1.3.6-1.3 1.3-1.3zm-3.8 0c.7 0 1.3.6 1.3 1.3s-.6 1.3-1.3 1.3-1.3-.6-1.3-1.3.6-1.3 1.3-1.3zM32 29c0 2-1.6 3.6-3.6 3.6H11.6C9.6 32.6 8 31 8 29V16.2h24V29z"/><path class="st5" d="M11.6 24.9h1.5v2.3h1.5v-5.9h-1.5v2h-1.5v-2h-1.5v5.9h1.5zM16.6 27.2h1.6v-4.3h1.4v-1.6h-4.3v1.6h1.3zM21.5 25.2v-.9l-.1-.9.9 3.8h1.1l.8-3.8v1.1l-.1.9v1.8h1.4v-5.9h-1.8l-.9 3.7-.8-3.7h-1.8v5.9h1.3zM29.9 25.9h-2.1v-4.6h-1.5v5.9h3.6z"/></g><path id="map_1_" class="st4" d="M20 4.8c-6 0-10.9 4.9-10.9 10.9 0 9.7 10.3 19.4 10.9 19.4.7 0 10.9-9.7 10.9-19.4 0-6-4.9-10.9-10.9-10.9zm0 14.6c-2 0-3.6-1.6-3.6-3.6s1.6-3.6 3.6-3.6 3.6 1.6 3.6 3.6-1.6 3.6-3.6 3.6z"/><path id="facebook_2_" class="st4" d="M31.9 12.1c0-2.1-1.9-4-4-4H12.1c-2.1 0-4 1.9-4 4v15.8c0 2.1 1.9 4 4 4H20v-9h-2.9v-4H20v-1.5c0-2.7 2-5.1 4.4-5.1h3.2v4h-3.2c-.3 0-.8.4-.8 1.1V19h4v4h-4v9h4.2c2.1 0 4-1.9 4-4V12.1h.1z"/><path id="youtube_2_" class="st7" d="M35.6 26.3s-.3 2.2-1.3 3.1c-1.2 1.3-2.6 1.3-3.2 1.3-4.4.4-11.1.4-11.1.4s-8.3-.1-10.8-.3c-.7-.1-2.3-.1-3.5-1.4-1-1-1.3-3.1-1.3-3.1s-.3-2.6-.3-5.1v-2.4c0-2.6.3-5.1.3-5.1s.3-2.2 1.3-3.1c1.2-1.3 2.6-1.3 3.2-1.3 4.4-.4 11.1-.4 11.1-.4s6.7 0 11.1.3c.6.1 2 .1 3.2 1.3 1 1 1.3 3.1 1.3 3.1s.3 2.6.3 5.1v2.4c0 2.7-.3 5.2-.3 5.2zM16.8 15.2v9.5l9.5-4.8-9.5-4.7z"/><path id="twitter_3_" class="st4" d="M32.7 11.4c-.9.5-1.9.8-3 .9 1.1-.7 1.9-1.8 2.3-3.1-1 .7-2.1 1.1-3.3 1.4-1-1.1-2.3-1.8-3.8-1.8-2.9 0-5.2 2.5-5.2 5.7 0 .4 0 .9.1 1.3-4.3-.2-8.2-2.5-10.7-5.9-.4.8-.7 1.8-.7 2.8 0 2 .9 3.7 2.3 4.7-.9 0-1.7-.3-2.4-.7v.1c0 2.7 1.8 5 4.2 5.6-.4.1-.9.2-1.4.2-.3 0-.7 0-1-.1.7 2.3 2.6 3.9 4.9 3.9-1.8 1.5-4 2.4-6.5 2.4-.4 0-.8 0-1.2-.1 2.3 1.6 5 2.5 8 2.5 9.6 0 14.8-8.6 14.8-16.1v-.7c1-.8 1.9-1.8 2.6-3z"/><path id="back_1_" class="st5" d="M28.6 16.5h-9.2l2-1.9.2-.2c1.2-1.3 1.1-3.3-.2-4.4-1.4-1.3-3.5-1.3-4.9 0l-8.2 7.7-.2.2c-1.2 1.3-1.1 3.3.2 4.4l8.1 7.7c1.4 1.2 3.5 1.2 4.8 0l.2-.2c1.2-1.3 1.1-3.3-.2-4.4l-2-1.9h9.2c2.2 0 4-1.6 4-3.5s-1.6-3.5-3.8-3.5z"/></g><g id="White" class="st0"><path id="arrow_x5F_down_1_" class="st8" d="M17.7 26.5L10 18.4c-1.3-1.4-1.3-3.5 0-4.9 1.2-1.3 3.2-1.3 4.4-.2l.2.2 5.4 5.7 5.4-5.7c1.2-1.3 3.2-1.3 4.4-.2l.2.2c1.2 1.4 1.3 3.5 0 4.8l-7.7 8.1c-1.2 1.3-3.2 1.4-4.4.2l-.2-.1z"/><path id="arrow_left_1_" class="st8" d="M12.4 17.7l8.2-7.7c1.4-1.3 3.5-1.3 4.9 0 1.3 1.2 1.3 3.2.2 4.4l-.2.2-5.8 5.4 5.7 5.4c1.3 1.2 1.3 3.2.2 4.4l-.2.2c-1.4 1.2-3.5 1.3-4.8 0l-8.1-7.7c-1.3-1.2-1.4-3.1-.2-4.4l.1-.2z"/><path id="arrow_x5F_right_1_" class="st8" d="M27.6 22.3L19.4 30c-1.4 1.3-3.5 1.3-4.9 0-1.3-1.2-1.3-3.2-.2-4.4l.2-.2 5.7-5.4-5.7-5.4c-1.3-1.2-1.3-3.2-.2-4.4l.2-.2c1.4-1.2 3.5-1.3 4.8 0l8.1 7.7c1.3 1.2 1.4 3.1.2 4.4v.2z"/><path id="arrow_x5F_up_1_" class="st8" d="M22.3 13.5l7.7 8.2c1.3 1.4 1.3 3.5 0 4.9-1.2 1.3-3.2 1.4-4.4.2l-.2-.2-5.4-5.8-5.4 5.7c-1.2 1.3-3.2 1.4-4.4.2l-.2-.2c-1.2-1.4-1.2-3.5 0-4.8l7.7-8.1c1.2-1.3 3.1-1.4 4.4-.2l.2.1z"/><g id="download_4_"><path class="st9" d="M20.1 27.2c-.7 0-1.3-.3-1.8-.7l-7-7.2c-1-1.1-1-2.7 0-3.8.5-.5 1.1-.7 1.8-.7s1.3.3 1.8.7l2.4 2.4V7.6c0-1.6 1.3-2.9 2.9-2.9s2.9 1.3 2.9 2.9v10.1l2.2-2.3c.5-.5 1.1-.7 1.8-.7s1.3.3 1.8.7c1 1 1.1 2.7 0 3.8l-7.1 7.2c-.4.6-1.1.8-1.7.8zM12.5 35.3c-1.2 0-2.1-.9-2.1-2.1s.9-2.1 2.1-2.1h15.1c1.2 0 2.1.9 2.1 2.1s-.9 2.1-2.1 2.1H12.5z"/></g><g id="external_1_"><path class="st9" d="M25.6 22V11.5c0-.9-.7-1.6-1.6-1.6H8.7c-.9 0-1.6.7-1.7 1.5V22c0 .9.7 1.6 1.6 1.6h15.5c.8-.1 1.5-.7 1.5-1.6zm-3.2-1.6H10.2v-7.3h12.2v7.3z"/><path class="st9" d="M31.3 16.4h-3.5v3.1h2v7.3H17.6v-1.1h-3.2v2.7c0 .9.7 1.6 1.6 1.6h15.4c.9.1 1.6-.6 1.7-1.5V18c0-.9-.7-1.6-1.6-1.6h-.2z"/></g><path class="st9" d="M32.5 25v6.7c0 .9-.7 1.7-1.7 1.7h-5c-.9 0-1.7-.7-1.7-1.7V25h-8.4v6.7c0 .9-.7 1.7-1.7 1.7H9c-.9 0-1.7-.7-1.7-1.7V16.6l9-8.4C18.1 6.3 21 6 23 7.7l.6.6 9 8.4-.1 8.3z" id="home_1_"/><path id="mail_1_" class="st8" d="M35.4 11.5c-1-2.4-3.3-3.9-5.9-3.9h-19C7 7.6 4.1 10.5 4.1 14v12.1c0 3.5 2.9 6.4 6.4 6.4h19c3.5 0 6.4-2.9 6.4-6.4V13.9c0-.8-.2-1.7-.5-2.4zm-7 0l-8.2 7.2h-.1-.1l-8.3-7.2h16.7zM32 26.1c0 1.3-1.1 2.5-2.4 2.5h-19c-1.3 0-2.5-1.1-2.5-2.4V14v-.4l9.2 8.1c1.6 1.3 3.9 1.3 5.5 0l9.2-8V26.1z"/><g id="pdf_1_"><path id="シェイプ_41_1_" class="st9" d="M32.5 12.8c0-.3-.1-.6-.3-.8l-6.3-6.7c-.2-.2-.6-.4-.9-.4H12.5c-2.6-.1-4.9 1.9-5 4.5V30c-.3 2.5 1.4 4.7 3.9 5h16.2c2.5.3 4.7-1.4 5-3.9V30l-.1-17.2zm-4 14.7c0 2.9-.7 3.8-3.8 3.8h-9.4c-3.5 0-3.8-1.2-3.8-3.8V12.4c0-3.3.2-3.8 3.8-3.8h5.6v3.8c-.2 1.8 1 3.5 2.9 3.8h4.7v11.3z"/></g><path id="print_1_" class="st8" d="M31.3 13.8V7.6c0-1-.8-1.9-1.9-1.9H10.7c-1 0-1.9.8-1.9 1.9v6.2c-4.6 1-7.4 5.5-6.4 10.1.8 3.8 4.2 6.6 8.1 6.6h.3v1.9c0 1 .8 1.9 1.9 1.9h14.6c1 0 1.9-.8 1.9-1.9v-1.8h.3c4.7-.1 8.4-3.9 8.3-8.6-.1-3.9-2.8-7.3-6.6-8.1l.1-.1zM12.6 9.5h15v4.1h-15V9.5zm12.9 21H14.7v-5h10.8v5zm4-3.7h-.3v-1.2h.9c1 .1 1.9-.7 2-1.7s-.7-1.9-1.7-2H10c-1-.1-1.9.7-2 1.7-.1 1 .7 1.9 1.7 2H11v1.2h-.3c-2.6 0-4.7-2.1-4.7-4.7s2.1-4.7 4.7-4.7h18.9c2.6 0 4.7 2.1 4.7 4.7s-2.1 4.7-4.8 4.7z"/><g id="link_1_"><path class="st9" d="M8.6 31.4c1.8 1.8 4.3 2.8 6.8 2.8 2.6 0 5-1 6.8-2.8l1.7-1.7c.9-.9.9-2.4 0-3.3-.9-.9-2.4-.9-3.3 0L18.9 28c-2 2-5.2 2-7.2 0s-2-5.2 0-7.2l1.7-1.7c.9-.9.9-2.4 0-3.3-.9-.9-2.4-.9-3.3 0l-1.7 1.7c-3.8 3.9-3.7 10.1.2 13.9zM26.5 20.6c-.9.9-1 2.3-.1 3.2l.1.1c.4.4 1 .7 1.7.7.6 0 1.2-.2 1.7-.7l1.7-1.7c3.8-3.7 3.8-9.8.1-13.5l-.1-.1c-3.8-3.8-9.9-3.8-13.7 0l-1.7 1.7c-.9.9-.9 2.4 0 3.3.9.9 2.4.9 3.3 0l1.7-1.7c1.9-2 5.1-2 7.1-.1l.1.1c1 1 1.5 2.2 1.5 3.6 0 1.3-.5 2.6-1.5 3.6l-1.9 1.5z"/><path class="st9" d="M21 15.7L15.8 21c-.9.9-1 2.3-.1 3.2l.1.1c.4.4 1 .7 1.7.7.6 0 1.2-.2 1.7-.7l5.2-5.2c.9-.9 1-2.3.1-3.2l-.1-.1c-1-1-2.4-1-3.4-.1z"/></g><g id="feed_1_"><path class="st9" d="M10 15.3c-1.4 0-2.5 1.1-2.5 2.5s1.1 2.5 2.5 2.5c5.2-.2 9.7 3.9 9.9 9.1v.6c0 1.4 1.1 2.4 2.5 2.4s2.5-1.2 2.4-2.6c0-8-6.4-14.5-14.4-14.6-.1.1-.3.1-.4.1z"/><path class="st9" d="M10.6 7.6c-1.4 0-2.5 1.1-2.5 2.5s1.1 2.5 2.5 2.5c9.2.1 16.7 7.4 16.9 16.6 0 1.4 1.1 2.5 2.5 2.5s2.5-1.2 2.5-2.6c-.3-11.9-10-21.4-21.9-21.5z"/><circle class="st9" cx="12" cy="28.1" r="4.2"/></g><path id="search_1_" class="st8" d="M31.9 28.5l-3.1-3.1c3.8-5.4 2.5-12.9-3-16.7S13 6.3 9.2 11.7s-2.5 12.9 3 16.7c3.7 2.6 8.6 2.9 12.6.7l3.3 3.3c1 1.2 2.7 1.3 3.9.3 1.2-1 1.3-2.7.3-3.9-.1 0-.2-.1-.4-.3zm-20.4-9.9c0-4.1 3.3-7.4 7.4-7.4 4.1 0 7.4 3.3 7.4 7.4S23.1 26 19 26c-4.2 0-7.5-3.3-7.5-7.4z"/><g id="movie_2_"><path class="st9" d="M30.3 8.4H9.7c-2.1 0-3.9 1.7-3.9 3.9V27.7c0 2.1 1.7 3.9 3.9 3.9h20.6c2.1 0 3.9-1.7 3.9-3.9V12.3c-.1-2.1-1.8-3.9-3.9-3.9zm1.3 18H8.4V13.6h23.1v12.8z"/><path class="st9" d="M18.8 23.6l4.4-2.7c.8-.5.8-1.3 0-1.7l-4.4-2.7c-.8-.5-1.4-.3-1.4.4v6.3c0 .7.7.9 1.4.4z"/></g><g id="pdf_5_"><path class="st10" d="M17 20.1h-1.3v4.5H17c.7 0 1.2-.3 1.4-1 .1-.4.2-.8.2-1.3 0-.7-.1-1.2-.3-1.6-.2-.5-.7-.6-1.3-.6zM11.8 21.8c.2-.2.3-.4.3-.8s-.1-.6-.3-.8c-.2-.2-.4-.2-.8-.2H9.7v2H11c.3.1.6 0 .8-.2z"/><path class="st10" d="M30 4.8H13.6c-2.3 0-4.2 1.9-4.2 4.2v6.4h-1c-1.6 0-3 1.3-3 3v7.7c0 1.6 1.3 3 3 3h.9V31c0 2.3 1.9 4.2 4.2 4.2h16.7c2.3 0 4.2-1.9 4.2-4.2V9.4L30 4.8zm-21.8 21v-6.9h3c.7 0 1.2.2 1.6.5.4.4.6.9.6 1.7 0 .8-.2 1.4-.6 1.7-.4.3-1 .5-1.7.5H9.7v2.5H8.2zm23 3.8c0 1.2-1 2.2-2.2 2.2H14.9c-1.2 0-2.2-1-2.2-2.2V29h12.8c1.6 0 3-1.3 3-3v-7.7c0-1.6-1.3-3-3-3H12.7v-5.1c0-1.2 1-2.2 2.2-2.2h9.9v2.2c0 1.6 1.3 3 3 3h3.5v16.4zm-17-3.8v-6.9h3c.4 0 .8.1 1.1.2.5.2.9.5 1.2.9.2.3.4.7.5 1.1.1.4.1.8.1 1.1 0 .9-.2 1.7-.6 2.3-.5.9-1.3 1.3-2.3 1.3h-3zm11.5-4.1v1.2h-3.1v2.9h-1.4v-6.9h4.9v1.2h-3.5v1.6h3.1z"/></g><g id="e_x7E_book_2_"><path class="st10" d="M14.8 24.5c.3 0 .6-.1.7-.4s.3-.6.3-1.1c0-.5-.1-.8-.3-1.1-.2-.3-.4-.4-.7-.4s-.6.1-.8.4c-.2.3-.3.6-.3 1.1 0 .5.1.8.3 1.1.3.2.5.4.8.4zM10.7 22.6c-.1-.1-.3-.1-.6-.1H8.7v1.7h1.4c.2 0 .4 0 .6-.1.3-.1.4-.4.4-.8-.1-.3-.2-.5-.4-.7z"/><path class="st10" d="M30 4.8H13.6c-2.3 0-4.2 1.9-4.2 4.2v6.4h-1c-1.6 0-3 1.3-3 3v7.7c0 1.6 1.3 3 3 3h.9V31c0 2.3 1.9 4.2 4.2 4.2h16.7c2.3 0 4.2-1.9 4.2-4.2V9.4L30 4.8zM12 24.4c-.1.2-.2.4-.4.5-.2.2-.4.3-.6.3s-.5.1-.8.1H7.5V19h2.8c.7 0 1.2.2 1.5.7.2.3.3.6.3 1s-.1.7-.3.9c-.1.1-.2.3-.4.4.3.1.5.3.7.6.1.3.2.6.2.9-.1.3-.1.6-.3.9zm19.2 5.2c0 1.2-1 2.2-2.2 2.2H14.9c-1.2 0-2.2-1-2.2-2.2V29h12.8c1.6 0 3-1.3 3-3v-7.7c0-1.6-1.3-3-3-3H12.7v-5.1c0-1.2 1-2.2 2.2-2.2h9.9v2.2c0 1.6 1.3 3 3 3h3.5v16.4zM12.7 23c0-.7.2-1.3.5-1.8s.9-.7 1.6-.7c.7 0 1.3.2 1.6.7s.6 1.1.6 1.8-.2 1.3-.5 1.8-.9.7-1.6.7c-.7 0-1.3-.2-1.6-.7s-.6-1.1-.6-1.8zm4.8 0c0-.7.2-1.3.5-1.8s.9-.7 1.6-.7c.7 0 1.3.2 1.6.7.4.5.5 1.1.5 1.8s-.2 1.3-.5 1.8c-.4.5-.9.7-1.6.7-.7 0-1.3-.2-1.6-.7s-.5-1.1-.5-1.8zm7.4-2.4h1.4l-1.5 1.8 1.6 2.9H25l-1-2-.5.5v1.5h-1.1V19h1.1v3.4l1.4-1.8z"/><path class="st10" d="M10.7 21.3c.2-.1.2-.3.2-.6s-.1-.5-.3-.6c-.2-.1-.4-.1-.7-.1H8.7v1.4h1.4c.2.1.4 0 .6-.1zM19.6 24.5c.3 0 .6-.1.7-.4s.3-.6.3-1.1c0-.5-.1-.8-.3-1.1-.2-.3-.4-.4-.7-.4s-.6.1-.8.4c-.2.3-.3.6-.3 1.1 0 .5.1.8.3 1.1.3.2.5.4.8.4z"/></g><g id="html"><path class="st9" d="M28.4 4.9H11.6c-3.4 0-6.1 2.7-6.1 6.1v18c0 3.4 2.7 6.1 6.1 6.1h16.8c3.4 0 6.1-2.7 6.1-6.1V11c0-3.4-2.7-6.1-6.1-6.1zM17.5 10c.7 0 1.3.6 1.3 1.3s-.6 1.3-1.3 1.3c-.7 0-1.3-.6-1.3-1.3s.5-1.3 1.3-1.3zm-3.9 0c.7 0 1.3.6 1.3 1.3s-.6 1.3-1.3 1.3-1.3-.6-1.3-1.3.6-1.3 1.3-1.3zm-3.8 0c.7 0 1.3.6 1.3 1.3s-.6 1.3-1.3 1.3-1.3-.6-1.3-1.3.6-1.3 1.3-1.3zM32 29c0 2-1.6 3.6-3.6 3.6H11.6C9.6 32.6 8 31 8 29V16.2h24V29z"/><path class="st9" d="M11.6 24.9h1.5v2.3h1.5v-5.9h-1.5v2h-1.5v-2h-1.5v5.9h1.5zM16.6 27.2h1.6v-4.3h1.4v-1.6h-4.3v1.6h1.3zM21.5 25.2v-.9l-.1-.9.9 3.8h1.1l.8-3.8v1.1l-.1.9v1.8h1.4v-5.9h-1.8l-.9 3.7-.8-3.7h-1.8v5.9h1.3zM29.9 25.9h-2.1v-4.6h-1.5v5.9h3.6z"/></g><path id="map_2_" class="st8" d="M20 4.8c-6 0-10.9 4.9-10.9 10.9 0 9.7 10.3 19.4 10.9 19.4.7 0 10.9-9.7 10.9-19.4 0-6-4.9-10.9-10.9-10.9zm0 14.6c-2 0-3.6-1.6-3.6-3.6s1.6-3.6 3.6-3.6 3.6 1.6 3.6 3.6-1.6 3.6-3.6 3.6z"/><path id="facebook_1_" class="st8" d="M31.9 12.1c0-2.1-1.9-4-4-4H12.1c-2.1 0-4 1.9-4 4v15.8c0 2.1 1.9 4 4 4H20v-9h-2.9v-4H20v-1.5c0-2.7 2-5.1 4.4-5.1h3.2v4h-3.2c-.3 0-.8.4-.8 1.1V19h4v4h-4v9h4.2c2.1 0 4-1.9 4-4V12.1h.1z"/><path id="youtube_1_" class="st11" d="M35.6 26.3s-.3 2.2-1.3 3.1c-1.2 1.3-2.6 1.3-3.2 1.3-4.4.4-11.1.4-11.1.4s-8.3-.1-10.8-.3c-.7-.1-2.3-.1-3.5-1.4-1-1-1.3-3.1-1.3-3.1s-.3-2.6-.3-5.1v-2.4c0-2.6.3-5.1.3-5.1s.3-2.2 1.3-3.1c1.2-1.3 2.6-1.3 3.2-1.3 4.4-.4 11.1-.4 11.1-.4s6.7 0 11.1.3c.6.1 2 .1 3.2 1.3 1 1 1.3 3.1 1.3 3.1s.3 2.6.3 5.1v2.4c0 2.7-.3 5.2-.3 5.2zM16.8 15.2v9.5l9.5-4.8-9.5-4.7z"/><path id="twitter_2_" class="st8" d="M32.7 11.4c-.9.5-1.9.8-3 .9 1.1-.7 1.9-1.8 2.3-3.1-1 .7-2.1 1.1-3.3 1.4-1-1.1-2.3-1.8-3.8-1.8-2.9 0-5.2 2.5-5.2 5.7 0 .4 0 .9.1 1.3-4.3-.2-8.2-2.5-10.7-5.9-.4.8-.7 1.8-.7 2.8 0 2 .9 3.7 2.3 4.7-.9 0-1.7-.3-2.4-.7v.1c0 2.7 1.8 5 4.2 5.6-.4.1-.9.2-1.4.2-.3 0-.7 0-1-.1.7 2.3 2.6 3.9 4.9 3.9-1.8 1.5-4 2.4-6.5 2.4-.4 0-.8 0-1.2-.1 2.3 1.6 5 2.5 8 2.5 9.6 0 14.8-8.6 14.8-16.1v-.7c1-.8 1.9-1.8 2.6-3z"/><path id="back_2_" class="st9" d="M28.6 16.5h-9.2l2-1.9.2-.2c1.2-1.3 1.1-3.3-.2-4.4-1.4-1.3-3.5-1.3-4.9 0l-8.2 7.7-.2.2c-1.2 1.3-1.1 3.3.2 4.4l8.1 7.7c1.4 1.2 3.5 1.2 4.8 0l.2-.2c1.2-1.3 1.1-3.3-.2-4.4l-2-1.9h9.2c2.2 0 4-1.6 4-3.5s-1.6-3.5-3.8-3.5z"/></g><g id="wantedly" class="st0"><path class="st12" d="M30 26.4h-3.7l-1.6-3.9-1.6 3.9h-3.7l-6.6-15.9h3.7l4.7 11.4 1.6-3.8-3.2-7.6h3.7l1.3 3.1 1.3-3.1h3.7l-3.2 7.6 1.6 3.8 5-11.4V8.7c0-.7-.6-1.3-1.3-1.3h-23c-.8 0-1.4.6-1.4 1.3v22.9c0 .7.6 1.3 1.4 1.3h22.9c.7 0 1.4-.6 1.4-1.3V19.4l-3 7z"/></g><g id="youtube_3_" class="st0"><path class="st13" d="M35.5 12.2c-.4-1.4-1.5-2.5-2.9-2.9-2.5-.6-12.6-.6-12.6-.6s-10.1 0-12.6.7c-1.4.4-2.5 1.4-2.9 2.8-.6 2.5-.6 7.8-.6 7.8s0 5.3.7 7.8c.4 1.4 1.5 2.5 2.9 2.9 2.4.6 12.5.6 12.5.6s10.1 0 12.6-.7c1.4-.4 2.5-1.5 2.9-2.9.7-2.5.7-7.8.7-7.8s-.1-5.2-.7-7.7zM16.8 24.8v-9.7l8.4 4.8-8.4 4.9z"/><path class="st1" d="M35.5 12.2c-.4-1.4-1.5-2.5-2.9-2.9-2.5-.6-12.6-.6-12.6-.6s-10.1 0-12.6.7c-1.4.4-2.5 1.4-2.9 2.8-.6 2.5-.6 7.8-.6 7.8s0 5.3.7 7.8c.4 1.4 1.5 2.5 2.9 2.9 2.4.6 12.5.6 12.5.6s10.1 0 12.6-.7c1.4-.4 2.5-1.5 2.9-2.9.7-2.5.7-7.8.7-7.8s-.1-5.2-.7-7.7zM16.8 24.8v-9.7l8.4 4.8-8.4 4.9z"/><path class="st8" d="M16.8 24.8l8.4-4.8-8.4-4.8z"/></g></svg>
